# File created by Blade
# Date/Time:  Thu Jan 22 16:04:59 2015
# Frame Rate: 120.000 fps
#------------------------------------------------------
:FULLY-SPECIFIED
:DEGREES
1145
root 3.435929 36.997811 5.536775 -1.939045 -3.308282 1.738817
RightUpLeg 9.627721 -3.849874 -8.924072
RightLeg -4.545760 -0.000000 0.000000
RightFoot -9.575943 -12.822199 19.868541
RightToeBase 10.987638 -0.000000 -0.000000
LeftUpLeg 6.908389 -1.608020 6.989123
LeftLeg -0.449786 -0.000000 0.000000
LeftFoot -6.392584 7.771937 -22.867730
LeftToeBase 5.847295 -0.000000 -0.000000
Spine 4.164418 -5.447382 -3.901631
RightShoulder -12.649173 2.580151 -45.130819
RightArm 55.198079 62.453036 39.227957
RightForeArm 18.020969 -0.000000 22.660689
RightHand 10.929730 0.000000 -21.334170
RightHandThumb1 -24.326973 -0.000000 -32.862282
LeftShoulder -24.618301 19.761114 40.176979
LeftArm 71.416758 -67.795109 -43.792912
LeftForeArm 42.588986 -0.000000 7.097019
LeftHand -21.281980 -0.000000 14.705870
LeftHandThumb1 -26.253704 0.000000 33.147579
Head 8.716204 14.636330 5.770263
1146
root 3.430924 36.996144 5.532091 -1.934889 -3.267854 1.723679
RightUpLeg 9.636757 -3.873698 -8.895133
RightLeg -4.570876 -0.000000 0.000000
RightFoot -9.555240 -12.868015 19.813159
RightToeBase 10.966478 -0.000000 -0.000000
LeftUpLeg 6.854346 -1.852381 6.991025
LeftLeg -0.319370 -0.000000 0.000000
LeftFoot -6.713196 7.779496 -22.916830
LeftToeBase 6.113081 -0.000000 -0.000000
Spine 4.147182 -5.402871 -3.864124
RightShoulder -12.794621 2.537372 -45.157696
RightArm 57.518206 63.174307 40.740098
RightForeArm 18.504560 -0.000000 22.721844
RightHand 11.029856 -0.000000 -21.373259
RightHandThumb1 -24.326973 -0.000000 -32.862282
LeftShoulder -24.762707 19.528512 40.433423
LeftArm 73.185009 -67.960389 -44.860177
LeftForeArm 42.818591 -0.000000 7.289182
LeftHand -21.491810 -0.000000 14.746710
LeftHandThumb1 -26.253704 0.000000 33.147579
Head 8.960468 14.604485 5.777883
1147
root 3.425037 36.993494 5.527453 -1.938082 -3.229598 1.707773
RightUpLeg 9.663153 -3.865081 -8.864583
RightLeg -4.612948 -0.000000 0.000000
RightFoot -9.545098 -12.938313 19.760575
RightToeBase 10.919401 -0.000000 -0.000000
LeftUpLeg 6.784578 -2.150369 6.984392
LeftLeg -0.113828 -0.000000 0.000000
LeftFoot -7.115087 7.754834 -22.814695
LeftToeBase 5.810990 -0.000000 -0.000000
Spine 4.147061 -5.353000 -3.830906
RightShoulder -12.936488 2.581713 -45.245151
RightArm 59.549488 63.759399 42.077265
RightForeArm 19.023101 -0.000000 22.905995
RightHand 10.997751 0.000000 -21.410712
RightHandThumb1 -24.326973 -0.000000 -32.862282
LeftShoulder -24.875207 19.324210 40.655032
LeftArm 75.040213 -68.192929 -46.015987
LeftForeArm 42.901597 -0.000000 7.469211
LeftHand -21.524103 -0.000000 14.923703
LeftHandThumb1 -26.253704 0.000000 33.147579
Head 9.155302 14.556992 5.787583
1148
root 3.420334 36.991415 5.522924 -1.936566 -3.196670 1.702195
RightUpLeg 9.685478 -3.856586 -8.846911
RightLeg -4.663307 -0.000000 0.000000
RightFoot -9.551888 -12.987755 19.793202
RightToeBase 10.962692 -0.000000 -0.000000
LeftUpLeg 6.689986 -2.478157 6.960342
LeftLeg 0.155719 -0.000000 -0.000000
LeftFoot -7.581674 7.668941 -22.740311
LeftToeBase 5.125000 -0.000000 -0.000000
Spine 4.140026 -5.292776 -3.805436
RightShoulder -13.118537 2.749314 -45.398735
RightArm 61.472629 64.162224 43.373368
RightForeArm 19.433393 -0.000000 23.075571
RightHand 11.055732 -0.000000 -21.547550
RightHandThumb1 -24.326973 -0.000000 -32.862282
LeftShoulder -25.029224 19.158680 40.870493
LeftArm 77.150905 -68.378418 -47.493869
LeftForeArm 42.887379 -0.000000 7.745539
LeftHand -21.647816 -0.000000 15.139334
LeftHandThumb1 -26.253704 0.000000 33.147579
Head 9.336191 14.500697 5.773702
1149
root 3.417849 36.991071 5.518599 -1.937557 -3.164314 1.706989
RightUpLeg 9.709794 -3.858766 -8.843603
RightLeg -4.710361 -0.000000 0.000000
RightFoot -9.525418 -13.048935 19.757550
RightToeBase 10.921471 -0.000000 -0.000000
LeftUpLeg 6.587430 -2.818519 6.920393
LeftLeg 0.442755 -0.000000 -0.000000
LeftFoot -8.048925 7.623875 -22.608747
LeftToeBase 4.333999 -0.000000 -0.000000
Spine 4.130562 -5.220910 -3.779869
RightShoulder -13.316388 2.111346 -45.033854
RightArm 64.371366 65.021322 44.752714
RightForeArm 20.275470 -0.000000 22.741687
RightHand 11.323371 -0.000000 -22.018538
RightHandThumb1 -24.326973 -0.000000 -32.862282
LeftShoulder -25.123627 18.947160 41.097659
LeftArm 79.215105 -68.530596 -48.972146
LeftForeArm 42.945959 -0.000000 7.999766
LeftHand -21.729609 -0.000000 15.498242
LeftHandThumb1 -26.253704 0.000000 33.147579
Head 9.590128 14.377158 5.685082
1150
root 3.417775 36.992057 5.515563 -1.946626 -3.128689 1.726781
RightUpLeg 9.745324 -3.868531 -8.861027
RightLeg -4.758749 -0.000000 0.000000
RightFoot -9.552178 -13.057242 19.832326
RightToeBase 11.100503 -0.000000 -0.000000
LeftUpLeg 6.465649 -3.159831 6.863271
LeftLeg 0.775313 -0.000000 -0.000000
LeftFoot -8.464242 7.540770 -22.586097
LeftToeBase 3.804420 -0.000000 -0.000000
Spine 4.138272 -5.136857 -3.778571
RightShoulder -13.471833 1.516451 -44.646077
RightArm 66.720337 65.843569 45.543798
RightForeArm 20.959687 -0.000000 22.387263
RightHand 11.574416 -0.000000 -22.066829
RightHandThumb1 -24.326973 -0.000000 -32.862282
LeftShoulder -25.253046 18.741628 41.267626
LeftArm 81.464782 -68.668577 -50.567964
LeftForeArm 42.744820 -0.000000 8.222088
LeftHand -21.773076 -0.000000 15.855740
LeftHandThumb1 -26.253704 0.000000 33.147579
Head 9.798419 14.294718 5.667298
